<?xml version="1.0" standalone="no"?>
<!DOCTYPE svg PUBLIC "-//W3C//DTD SVG 20010904//EN"
 "http://www.w3.org/TR/2001/REC-SVG-20010904/DTD/svg10.dtd">
<svg version="1.0" xmlns="http://www.w3.org/2000/svg"
 width="512.000000pt" height="512.000000pt" viewBox="0 0 512.000000 512.000000"
 preserveAspectRatio="xMidYMid meet">
<metadata>
Created by potrace 1.11, written by Peter Selinger 2001-2013
</metadata>
<g transform="translate(0.000000,512.000000) scale(0.100000,-0.100000)"
fill="#000000" stroke="none">
<path d="M2335 4779 c-235 -26 -518 -105 -723 -204 -102 -49 -163 -83 -367
-203 -180 -106 -379 -303 -492 -487 -189 -309 -313 -604 -367 -877 -81 -403
-48 -843 89 -1214 278 -749 915 -1281 1705 -1425 164 -30 508 -38 675 -14 374
51 706 180 993 383 l63 45 93 -92 c115 -112 161 -136 266 -136 91 0 149 24
210 85 61 61 85 119 85 210 0 105 -24 151 -136 265 l-91 93 50 68 c204 284
335 622 387 999 24 167 16 511 -14 675 -112 615 -449 1129 -965 1471 -266 177
-574 295 -896 344 -128 20 -442 27 -565 14z m-33 -670 c102 -27 220 -80 317
-144 99 -65 246 -214 228 -231 -3 -3 -16 2 -30 11 -14 8 -76 34 -138 55 -113
40 -114 40 -266 40 l-153 0 0 -490 0 -490 -490 0 -490 0 0 -255 0 -256 -47 53
c-98 111 -173 249 -218 404 -33 113 -32 147 10 271 56 169 172 388 248 471 28
30 6 28 -31 -3 -17 -14 -34 -25 -40 -25 -6 0 -52 -44 -103 -97 -88 -93 -92
-96 -85 -63 20 108 113 289 204 402 111 138 288 263 452 320 201 69 436 79
632 27z m1088 -145 c497 -296 800 -824 801 -1394 0 -231 -33 -407 -113 -608
-36 -91 -112 -235 -158 -301 -15 -21 -24 -13 -325 289 l-310 310 278 0 277 0
0 300 0 300 -157 0 -158 0 0 217 c0 173 -4 236 -18 303 -49 231 -154 461 -286
627 -22 29 -41 55 -41 57 0 9 133 -54 210 -100z m-446 -348 c50 -85 95 -204
118 -316 17 -79 19 -120 15 -245 -8 -210 1 -196 -116 -193 l-96 3 -2 435 -2
435 23 -29 c13 -16 40 -56 60 -90z m-684 -1410 l0 -43 -107 -32 c-60 -17 -156
-41 -214 -53 l-106 -22 -84 22 c-82 22 -280 113 -329 152 l-25 20 433 0 432 0
0 -44z m-1052 -375 c141 -94 347 -178 532 -218 67 -14 130 -18 303 -18 l217 0
0 -157 0 -158 300 0 300 0 0 270 c0 149 3 270 8 270 4 0 142 -135 307 -300
262 -262 298 -301 285 -314 -30 -29 -191 -114 -292 -154 -201 -80 -377 -113
-608 -113 -595 1 -1141 329 -1428 861 -22 41 -43 86 -47 100 l-8 24 36 -27
c20 -15 63 -45 95 -66z"/>
</g>
</svg>
